/vscmnt/brussel_pixiu_data/_data_brussel/112/vsc11236/PredSimResults/SUBJ09mtu3D/worker7.mot
version=1
nRows=7
nColumns=50
inDegrees=yes
endheader
                time	         pelvis_tilt	         pelvis_list	     pelvis_rotation	           pelvis_tx	           pelvis_ty	           pelvis_tz	       hip_flexion_r	     hip_adduction_r	      hip_rotation_r	        knee_angle_r	       ankle_angle_r	         mtp_angle_r	       hip_flexion_l	     hip_adduction_l	      hip_rotation_l	        knee_angle_l	       ankle_angle_l	         mtp_angle_l	    lumbar_extension	      lumbar_bending	     lumbar_rotation	 ercspn_r/activation	 intobl_r/activation	 extobl_r/activation	    abd_r/activation	    add_r/activation	hamstrings_r/activation	bifemsh_r/activation	glut_max_r/activation	iliopsoas_r/activation	rect_fem_r/activation	  vasti_r/activation	gastroc_r/activation	 soleus_r/activation	tib_ant_r/activation	 ercspn_l/activation	 intobl_l/activation	 extobl_l/activation	    abd_l/activation	    add_l/activation	hamstrings_l/activation	bifemsh_l/activation	glut_max_l/activation	iliopsoas_l/activation	rect_fem_l/activation	  vasti_l/activation	gastroc_l/activation	 soleus_l/activation	tib_ant_l/activation	
          0.00000000	         -4.15791081	         -0.91764448	          8.48709369	          0.00000000	          0.98884618	         -0.00292812	         28.63376276	         -1.74914495	         -9.72054540	         -5.82994087	          3.93108360	          0.25109772	        -14.44707493	         -2.60641751	         -5.26535716	         -9.85617000	          3.25879244	         37.31967168	        -13.74906574	         -1.24467098	         -6.53972214	          0.02727999	          0.15761014	          0.02946359	          0.01000002	          0.22146341	          0.06903696	          0.13345315	          0.09094086	          0.14360036	          0.01209986	          0.01000002	          0.01464103	          0.01000003	          0.33496352	          0.03532005	          0.01000003	          0.01000006	          0.02593543	          0.01209993	          0.01551641	          0.16023415	          0.01209982	          0.01595169	          0.01000008	          0.01000005	          0.31113618	          0.21857138	          0.01385873	
          0.01259883	         -4.17670713	         -1.03163895	          8.46653954	          0.02018861	          0.98657926	         -0.00223222	         28.61055399	         -1.59776587	         -9.79986043	         -7.77088213	          3.46940579	          0.21099978	        -15.14162914	         -2.94762833	         -5.72491658	        -10.54592238	          2.05903542	         38.90202299	        -13.24942479	         -0.80072506	         -6.70781469	          0.02254583	          0.13025842	          0.02435046	          0.07997650	          0.18693597	          0.06813903	          0.11029365	          0.12393145	          0.11867990	          0.01000006	          0.01000004	          0.01210026	          0.01209980	          0.37947117	          0.02919064	          0.01000001	          0.01000009	          0.02143459	          0.01000014	          0.01282374	          0.13242710	          0.01000004	          0.01318357	          0.01000007	          0.01000007	          0.28033280	          0.19578071	          0.01145368	
          0.02519766	         -4.17814324	         -1.15276038	          8.40990076	          0.04062061	          0.98465715	         -0.00144919	         28.49387230	         -1.43080523	         -9.87377354	         -9.59521742	          2.89248543	          0.20173515	        -15.63470748	         -3.31802749	         -6.20463964	        -11.63064622	          0.73663389	         40.40120193	        -12.73861311	         -0.34895054	         -6.84409955	          0.02034063	          0.10765332	          0.02012468	          0.13575992	          0.20962475	          0.05631425	          0.09115326	          0.16133234	          0.09808414	          0.01000002	          0.01000001	          0.01000038	          0.01000000	          0.42792308	          0.03714206	          0.01000000	          0.01000001	          0.01771482	          0.01000002	          0.01059834	          0.10944568	          0.01000000	          0.04687273	          0.01000011	          0.01000007	          0.23168377	          0.16724104	          0.00999999	
          0.03779649	         -4.16379264	         -1.27198918	          8.31938082	          0.06094521	          0.98328369	         -0.00056545	         28.43268678	         -1.26371087	         -9.94756645	        -11.53365526	          2.34143457	          0.16558186	        -15.81028601	         -3.71958273	         -6.69444635	        -13.28069064	         -0.66190399	         41.65830542	        -12.25853042	          0.10073660	         -6.94764889	          0.03344309	          0.08897112	          0.01663223	          0.18904142	          0.25766605	          0.05280876	          0.07533450	          0.16931596	          0.08106258	          0.01000004	          0.07071063	          0.01000006	          0.01000006	          0.44500766	          0.09099799	          0.01000001	          0.01000001	          0.01464059	          0.04049808	          0.01064069	          0.09045246	          0.01000001	          0.03873891	          0.01000006	          0.01000031	          0.19147728	          0.13821797	          0.01000000	
          0.05039532	         -4.13568378	         -1.38753024	          8.20225953	          0.08095037	          0.98260322	          0.00040148	         28.43703392	         -1.09807591	         -9.98977195	        -13.64403890	          2.15806054	          0.12337688	        -15.58691804	         -4.15995541	         -7.20796804	        -15.60780286	         -2.09948376	         42.45786639	        -11.82858989	          0.54676350	         -7.02113771	          0.02847846	          0.07353104	          0.01374587	          0.21459786	          0.28956499	          0.04832695	          0.06226093	          0.18729836	          0.06699495	          0.01000003	          0.16815696	          0.01000006	          0.01000002	          0.44237830	          0.10259012	          0.01000002	          0.01000001	          0.01209985	          0.12408765	          0.01474780	          0.07475535	          0.01000000	          0.06910369	          0.01000002	          0.01000001	          0.15824824	          0.11423157	          0.01000000	
          0.06299415	         -4.09745267	         -1.48387152	          8.05717920	          0.10048474	          0.98274106	          0.00141862	         28.40141596	         -0.93243697	        -10.00163817	        -15.71916794	          2.35885060	          0.08890736	        -14.89834613	         -4.63486935	         -7.79718661	        -18.71878787	         -3.45961019	         42.37066164	        -11.46334260	          0.97362424	         -7.06140356	          0.02353655	          0.06077044	          0.01136041	          0.22003985	          0.31562336	          0.04887086	          0.05145615	          0.18702569	          0.05536862	          0.01000002	          0.20085041	          0.01000004	          0.01000001	          0.40331274	          0.10367096	          0.01000002	          0.01000001	          0.01000004	          0.16979821	          0.01218862	          0.06178235	          0.01000000	          0.05711160	          0.01000002	          0.01000000	          0.13078578	          0.09440778	          0.01000000	
          0.07559298	         -4.05149589	         -1.54448179	          7.88152073	          0.11951076	          0.98368603	          0.00245415	         28.23939929	         -0.77127910	         -9.98542697	        -17.59130691	          2.89624345	          0.08163990	        -13.74168381	         -5.14632743	         -8.46860344	        -22.57938860	         -4.87544437	         41.36465062	        -11.16468160	          1.36439419	         -7.06407758	          0.01945204	          0.05022431	          0.01000001	          0.21777616	          0.30322495	          0.05492192	          0.04252645	          0.18297643	          0.04575993	          0.01000003	          0.24423189	          0.01000008	          0.01000004	          0.34263066	          0.09166168	          0.01000001	          0.01000001	          0.00999999	          0.22212234	          0.01693318	          0.05729088	          0.00999999	          0.04720049	          0.01000001	          0.00999999	          0.10808916	          0.07802421	          0.01000001	
